<?xml version="1.0" standalone="no"?>
<!DOCTYPE svg PUBLIC "-//W3C//DTD SVG 20010904//EN"
 "http://www.w3.org/TR/2001/REC-SVG-20010904/DTD/svg10.dtd">
<svg version="1.0" xmlns="http://www.w3.org/2000/svg"
 width="300.000000pt" height="329.000000pt" viewBox="0 0 300.000000 329.000000"
 preserveAspectRatio="xMidYMid meet">
<metadata>
Created by potrace 1.10, written by Peter Selinger 2001-2011
</metadata>
<g transform="translate(0.000000,329.000000) scale(0.100000,-0.100000)"
fill="#000000" stroke="none">
<path d="M1255 3266 c-243 -47 -445 -134 -628 -272 -45 -34 -128 -109 -184
-167 -202 -210 -329 -454 -394 -757 -20 -89 -23 -135 -23 -305 0 -169 4 -216
22 -302 68 -315 201 -562 424 -785 l116 -118 912 0 912 0 116 118 c223 223
356 470 424 785 18 86 22 133 22 302 0 170 -3 216 -23 305 -65 305 -191 546
-395 758 -207 215 -430 345 -716 418 -93 23 -128 27 -310 30 -144 2 -226 -1
-275 -10z m392 -16 c65 -11 129 -24 143 -30 14 -5 41 -11 60 -13 70 -9 237
-75 370 -148 121 -66 317 -239 401 -354 24 -33 49 -66 56 -72 44 -48 155 -270
196 -393 97 -298 98 -649 2 -944 -55 -168 -178 -388 -286 -510 -74 -84 -161
-165 -194 -180 -26 -13 -154 -15 -910 -13 l-880 2 -28 25 c-72 62 -182 182
-237 255 -68 92 -177 304 -214 419 -56 170 -70 266 -70 466 0 182 3 209 43
375 95 396 353 736 709 937 110 62 237 114 322 132 14 3 43 10 65 16 22 5 60
12 85 16 25 3 74 12 110 19 92 18 123 18 257 -5z"/>
<path d="M1345 3223 c-35 -8 -45 -33 -45 -110 0 -42 -4 -73 -10 -73 -5 0 -10
6 -10 14 0 21 -33 91 -53 111 -30 29 -96 31 -137 3 -44 -29 -49 -61 -22 -137
12 -31 26 -75 32 -99 15 -59 47 -79 101 -63 22 7 54 25 71 42 36 34 36 34 60
12 25 -23 124 -20 150 4 24 21 23 58 -2 76 -17 12 -20 21 -14 54 4 28 2 42 -9
51 -13 11 -12 16 9 37 29 29 30 39 4 65 -20 20 -73 25 -125 13z m115 -43 c0
-17 -7 -20 -40 -20 -41 0 -45 -5 -34 -47 5 -17 14 -23 35 -23 22 0 29 -5 29
-20 0 -16 -7 -20 -30 -20 -28 0 -30 -3 -30 -36 l0 -37 45 6 c43 6 45 5 45 -18
0 -24 -3 -25 -54 -25 -30 0 -61 -2 -69 -5 -11 -5 -15 19 -23 124 l-9 130 25 4
c14 2 44 5 68 6 36 1 42 -2 42 -19z m-260 -30 c12 -6 29 -41 45 -91 30 -95 31
-111 8 -131 -18 -16 -101 -45 -106 -37 -4 5 -69 220 -71 233 -1 9 59 34 87 35
10 1 27 -4 37 -9z"/>
<path d="M1144 3114 c-7 -3 -2 -29 13 -76 13 -39 23 -77 23 -84 0 -15 26 -19
34 -6 6 10 -43 172 -52 171 -4 0 -12 -3 -18 -5z"/>
<path d="M1635 3200 c-16 -17 -17 -32 -10 -132 7 -115 15 -146 44 -163 49 -29
81 2 134 125 50 119 52 125 28 149 -24 24 -40 26 -76 9 -22 -10 -28 -9 -41 10
-19 27 -55 28 -79 2z m65 -103 c0 -50 4 -87 8 -81 5 5 21 43 36 85 26 72 28
75 55 71 l28 -4 -52 -119 c-29 -66 -55 -122 -57 -125 -3 -3 -17 -2 -32 2 -24
6 -26 10 -27 68 0 33 -3 92 -8 129 -4 37 -6 69 -4 71 2 2 15 1 28 -2 24 -4 25
-6 25 -95z"/>
<path d="M1892 3140 c-10 -11 -34 -66 -52 -121 -37 -114 -35 -147 12 -163 21
-7 32 -6 45 7 21 19 34 13 50 -25 17 -38 67 -62 115 -54 35 6 38 4 38 -17 0
-29 34 -67 60 -67 11 0 26 -12 34 -29 18 -34 81 -91 101 -91 8 0 22 -16 31
-37 11 -22 29 -40 46 -47 20 -7 28 -17 28 -34 0 -13 13 -36 28 -51 20 -18 28
-34 25 -50 -2 -15 5 -29 21 -42 13 -10 27 -35 30 -55 5 -26 16 -41 41 -56 29
-16 33 -23 25 -38 -6 -10 -10 -28 -10 -39 0 -11 -6 -23 -12 -27 -7 -4 -10 -3
-5 1 4 5 1 18 -6 29 -8 12 -20 39 -27 61 -16 51 -70 152 -122 227 -90 134
-239 264 -391 343 -110 57 -185 82 -332 111 -42 9 -284 10 -320 2 -16 -3 -55
-12 -85 -18 -54 -11 -145 -41 -185 -60 -11 -5 -31 -14 -45 -20 -27 -11 -31
-13 -140 -84 -72 -48 -219 -184 -253 -236 -9 -14 -30 -44 -46 -68 -17 -23 -51
-86 -77 -140 -39 -82 -47 -94 -54 -76 -5 12 -22 31 -39 43 -19 14 -34 37 -41
61 -25 92 -151 116 -202 38 -21 -33 -30 -86 -17 -109 5 -11 34 -31 62 -44 l52
-23 -66 1 c-74 2 -99 -11 -99 -50 0 -13 7 -34 15 -47 14 -21 13 -24 -15 -51
-17 -16 -30 -37 -30 -46 0 -23 44 -57 84 -64 17 -3 42 -7 56 -9 60 -10 100
-19 100 -23 0 -2 -9 -14 -20 -26 -18 -19 -23 -20 -41 -8 -17 10 -27 10 -49 1
-25 -10 -32 -9 -51 9 -29 26 -43 26 -68 0 -24 -26 -27 -111 -4 -146 15 -22 21
-23 141 -23 114 0 128 2 148 21 27 25 26 27 48 -105 62 -361 282 -660 600
-815 184 -90 274 -110 484 -111 145 0 241 17 369 66 244 93 443 264 569 490
32 57 81 168 90 204 2 8 11 40 19 70 8 30 20 84 26 120 16 105 17 106 45 79
l23 -22 118 29 c89 21 124 34 141 53 12 13 22 29 22 36 0 26 -43 65 -83 76
-135 35 -137 39 -33 58 66 12 96 33 96 66 0 49 -56 66 -155 46 -53 -10 -70 -4
-49 16 10 10 14 27 12 45 -5 33 17 40 27 8 16 -50 83 -48 114 4 44 71 -9 160
-92 155 -23 -1 -52 -6 -64 -11 -43 -15 -23 10 32 41 31 18 61 43 67 56 10 22
8 29 -16 54 -15 16 -29 41 -30 55 -4 34 -33 66 -60 66 -12 0 -52 -16 -90 -35
-37 -19 -70 -35 -72 -35 -13 0 2 30 46 88 63 84 70 105 39 138 -31 33 -53 31
-160 -16 -50 -23 -93 -39 -94 -38 -1 2 -10 20 -20 40 l-17 37 50 58 c63 72 72
103 40 133 -22 20 -41 22 -80 5 -16 -6 -17 -3 -12 24 5 22 2 37 -10 50 -33 36
-52 32 -101 -21 -52 -57 -67 -57 -38 -1 32 60 15 115 -42 139 -57 24 -75 18
-131 -41 l-52 -54 19 60 c23 75 23 75 -1 99 -26 26 -54 25 -78 0z m33 -140
c-27 -82 -45 -120 -55 -120 -38 1 -38 14 3 136 41 121 41 121 67 112 l26 -9
-41 -119z m214 34 c33 -27 37 -44 21 -74 -9 -17 -14 -18 -35 -8 -28 13 -30 19
-13 36 9 9 9 15 0 24 -15 15 -22 9 -67 -74 -34 -62 -38 -88 -15 -88 14 0 37
52 33 72 -6 25 13 31 46 13 l30 -15 -21 -38 c-44 -76 -63 -86 -118 -57 -48 25
-48 54 0 142 23 43 47 81 53 85 23 15 56 8 86 -18z m156 -88 c17 -12 14 -19
-55 -115 -40 -55 -76 -101 -80 -101 -3 0 -14 6 -24 13 -17 13 -13 21 55 115
41 56 77 102 80 102 3 0 14 -6 24 -14z m108 -84 c16 -18 14 -22 -40 -83 -94
-106 -89 -95 -58 -121 18 -16 24 -29 20 -41 -10 -24 -13 -22 -69 28 l-49 43
84 95 c46 52 87 96 90 96 3 1 13 -7 22 -17z m-804 -12 c295 -31 561 -181 742
-419 69 -92 154 -267 186 -386 24 -90 27 -118 27 -275 1 -153 -2 -186 -23
-264 -131 -498 -541 -826 -1031 -826 -490 0 -900 328 -1031 826 -21 78 -24
111 -23 264 0 157 3 185 27 275 32 119 117 294 186 386 64 85 179 193 261 247
166 110 329 162 561 181 9 0 62 -4 118 -9z m1003 -202 c14 -21 10 -28 -66
-125 -80 -101 -81 -102 -100 -83 -19 18 -19 20 -3 38 15 16 15 20 1 40 -13 18
-19 20 -36 11 -17 -9 -24 -7 -41 10 l-21 20 70 32 c38 17 92 41 119 54 63 29
60 29 77 3z m120 -183 c10 -23 8 -30 -28 -68 -74 -78 -74 -84 -2 -44 l68 38
12 -26 c6 -14 9 -27 7 -29 -2 -2 -54 -29 -115 -59 l-111 -56 -12 25 c-10 23
-7 30 39 82 27 30 48 57 46 59 -2 2 -30 -12 -64 -31 l-60 -34 -12 26 c-6 15
-8 28 -3 30 4 1 53 27 108 56 55 29 103 54 108 55 4 0 13 -10 19 -24z m-2394
-151 c21 -14 24 -21 19 -58 l-6 -42 44 -13 c30 -9 45 -19 45 -30 -1 -41 -14
-41 -137 6 l-121 46 19 46 c11 25 28 52 37 59 20 15 65 9 100 -14z m2497 -118
c25 -37 16 -97 -15 -113 -23 -12 -26 -10 -37 15 -10 23 -9 28 8 34 17 7 28 38
13 38 -4 0 -42 -10 -86 -22 -60 -16 -78 -25 -76 -37 2 -10 12 -15 26 -13 25 4
48 -37 28 -50 -55 -36 -125 60 -83 115 13 17 133 55 179 56 19 1 33 -7 43 -23z
m-2375 -111 c-14 -42 -26 -45 -33 -8 -4 20 1 32 16 46 27 23 33 9 17 -38z
m-147 8 c98 -16 98 -16 92 -42 -4 -14 -7 -27 -8 -28 -1 -1 -29 5 -62 12 -53
12 -58 12 -40 -1 11 -8 30 -17 43 -21 12 -3 22 -13 22 -23 0 -13 -12 -20 -47
-26 l-48 -8 58 -9 c54 -9 57 -11 57 -38 0 -25 -3 -29 -22 -24 -13 3 -70 14
-128 24 -73 12 -106 22 -107 32 -6 31 15 42 98 48 72 6 80 9 59 18 -138 59
-138 60 -132 88 4 24 8 26 36 21 17 -4 75 -14 129 -23z m2303 -67 l23 -21 -20
-24 c-25 -31 -35 -20 -43 49 -6 45 -5 51 5 36 7 -11 22 -29 35 -40z m-2190
-88 c-10 -27 -15 -35 -16 -21 0 12 -4 25 -10 28 -17 10 -11 37 13 63 l22 24 3
-25 c2 -14 -4 -45 -12 -69z m2458 14 c-6 -2 -64 -11 -127 -20 l-116 -18 -6 24
c-3 13 -4 26 -2 28 2 2 60 12 128 22 l124 18 5 -26 c3 -14 1 -26 -6 -28z
m-251 -79 c-3 -7 -9 -13 -15 -13 -5 0 -6 -6 -2 -12 5 -9 4 -10 -4 -3 -6 6 -11
21 -12 35 -4 48 -1 53 19 29 10 -13 16 -29 14 -36z m-2213 -5 c0 -13 -3 -33
-6 -46 l-7 -23 -18 27 c-17 26 -17 30 -2 46 22 24 33 23 33 -4z m2490 -89 c0
-24 -6 -27 -130 -60 l-130 -35 0 27 c0 19 6 30 20 34 14 4 20 15 20 36 0 22
-5 29 -20 29 -15 0 -20 7 -20 28 l0 29 130 -31 c125 -30 130 -32 130 -57z
m-2540 -19 l0 -70 -130 0 -130 0 0 65 c0 64 1 65 26 65 25 0 26 -2 20 -40 l-6
-40 35 0 c32 0 35 2 35 30 0 25 4 30 23 30 20 0 23 -4 19 -30 -4 -29 -3 -30
32 -30 l36 0 0 45 c0 38 3 45 20 45 18 0 20 -7 20 -70z m2248 64 c-4 -3 2 -14
13 -25 20 -20 16 -44 -11 -59 -15 -8 -17 -4 -14 38 3 55 2 52 11 52 3 0 4 -3
1 -6z"/>
<path d="M1398 2733 c-24 -3 -41 -12 -52 -28 -8 -13 -30 -26 -48 -30 -18 -4
-66 -16 -106 -28 -90 -25 -94 -32 -94 -177 0 -90 22 -243 36 -257 3 -3 26 2
53 10 94 30 170 41 298 41 133 1 229 -8 254 -23 32 -20 -88 -218 -193 -321
l-46 -44 -60 59 c-84 83 -81 95 19 95 l79 0 31 39 c17 21 31 44 31 49 0 29
-152 27 -322 -4 -55 -10 -88 -21 -88 -28 0 -43 175 -239 267 -300 l42 -28 63
45 c111 80 197 183 259 310 36 75 68 181 57 192 -3 3 -50 17 -104 31 -134 35
-321 43 -453 20 -63 -11 -98 -13 -104 -7 -6 6 -11 52 -11 103 l-1 93 80 17
c107 22 323 22 430 0 l80 -17 1 -69 1 -69 47 -18 c41 -15 48 -16 53 -3 9 24
-3 224 -14 235 -5 5 -57 22 -116 36 -83 21 -108 31 -117 48 -9 17 -24 24 -64
29 -52 6 -123 6 -188 -1z m236 -61 c23 -16 55 -32 71 -35 80 -15 124 -30 140
-47 29 -32 28 -186 -1 -157 -8 7 -12 32 -13 79 -2 49 -37 73 -131 88 -75 12
-317 16 -375 6 -88 -15 -108 -21 -130 -42 -22 -21 -25 -31 -25 -100 0 -86 20
-141 54 -149 11 -2 59 1 106 8 136 21 320 12 440 -21 63 -17 65 -19 64 -49 -2
-36 -45 -138 -90 -209 -65 -104 -206 -234 -253 -234 -23 0 -190 155 -222 206
-34 56 -25 63 106 79 63 8 145 8 152 1 14 -14 -17 -28 -71 -31 -92 -6 -121
-36 -92 -93 18 -35 98 -108 126 -115 61 -16 252 221 285 353 10 40 -29 69
-111 82 -83 13 -238 17 -279 7 -16 -4 -48 -10 -70 -12 -22 -3 -61 -10 -87 -17
-26 -7 -54 -10 -62 -7 -28 11 -49 251 -27 310 10 27 39 40 127 61 34 7 76 24
93 37 36 27 93 37 175 33 47 -3 69 -10 100 -32z"/>
<path d="M1566 1695 c-13 -20 -14 -25 -3 -25 17 0 49 34 40 43 -11 12 -20 8
-37 -18z"/>
<path d="M755 1639 c-33 -20 -35 -29 -35 -156 0 -115 1 -123 22 -137 55 -39
138 -6 138 54 0 27 -3 30 -30 30 -25 0 -30 -4 -30 -25 0 -29 -27 -45 -41 -24
-5 8 -8 59 -7 114 3 95 4 100 26 103 18 3 22 -1 22 -22 0 -22 4 -26 30 -26 25
0 30 4 30 24 0 53 -77 93 -125 65z"/>
<path d="M953 1640 c-35 -14 -43 -43 -43 -158 0 -101 2 -110 23 -130 29 -27
86 -29 117 -4 21 17 23 26 22 128 0 60 0 117 -1 126 -1 19 -49 48 -78 47 -10
0 -28 -4 -40 -9z m62 -155 c0 -103 -1 -110 -20 -110 -19 0 -20 8 -23 113 -3
113 -3 113 20 110 22 -3 23 -6 23 -113z"/>
<path d="M1110 1491 l0 -161 29 0 29 0 -5 68 c-6 77 2 75 33 -6 18 -49 25 -57
52 -63 18 -4 32 -5 32 -3 0 2 -15 34 -32 70 -24 48 -29 68 -20 71 30 11 42 36
42 87 0 70 -20 88 -100 94 l-60 4 0 -161z m98 62 c-3 -40 -6 -48 -23 -48 -17
0 -20 8 -23 48 -3 45 -2 47 23 47 25 0 26 -2 23 -47z"/>
<path d="M1308 1491 l3 -161 58 0 c44 0 62 5 79 20 20 19 22 30 22 134 0 145
-8 158 -101 164 l-64 4 3 -161z m100 -3 c-3 -109 -4 -113 -25 -116 -23 -3 -23
-2 -23 112 l0 116 25 0 26 0 -3 -112z"/>
<path d="M1550 1643 c-45 -17 -50 -31 -50 -155 0 -105 2 -120 20 -138 24 -24
86 -27 118 -4 21 14 22 22 22 139 0 122 0 124 -26 144 -26 21 -54 25 -84 14z
m51 -50 c7 -68 2 -207 -8 -215 -26 -21 -33 5 -33 113 0 102 1 109 20 109 11 0
20 -3 21 -7z"/>
<path d="M1690 1491 l0 -161 30 0 29 0 3 98 3 97 35 -97 c34 -97 35 -98 67
-98 l33 0 0 160 0 160 -30 0 -29 0 -3 -97 -3 -98 -35 95 c-34 91 -37 95 -68
98 l-32 3 0 -160z"/>
<path d="M2000 1460 l0 -130 49 0 c74 0 81 12 81 130 0 91 -2 100 -22 114 -12
9 -42 16 -65 16 l-43 0 0 -130z m83 0 c-1 -47 -2 -89 -2 -93 -1 -5 -8 -7 -17
-5 -12 2 -16 21 -17 96 -2 87 -1 93 18 90 17 -3 19 -11 18 -88z"/>
<path d="M2160 1460 l0 -130 63 0 c50 0 64 3 64 15 0 11 -11 15 -39 15 -38 0
-38 0 -38 40 0 36 3 40 25 40 18 0 25 5 25 20 0 15 -7 20 -25 20 -22 0 -25 4
-25 35 0 33 2 35 34 35 25 0 35 5 39 20 5 18 0 20 -59 20 l-64 0 0 -130z"/>
<path d="M738 1259 c-26 -15 -22 -58 7 -81 28 -22 33 -48 10 -48 -8 0 -15 7
-15 15 0 15 -12 20 -23 9 -14 -15 15 -44 43 -44 24 0 31 5 36 26 6 22 1 31
-25 51 -33 26 -41 53 -16 53 8 0 15 -4 15 -10 0 -5 7 -10 15 -10 19 0 19 14
-1 34 -18 19 -23 19 -46 5z"/>
<path d="M830 1190 l0 -80 30 0 c17 0 33 0 37 -1 4 0 9 4 11 10 2 6 -8 11 -22
11 -33 0 -37 35 -5 43 23 6 17 27 -7 27 -8 0 -14 9 -14 20 0 15 7 20 25 20 16
0 25 6 25 15 0 11 -11 15 -40 15 l-40 0 0 -80z"/>
<path d="M956 1254 c-17 -17 -22 -109 -7 -132 5 -8 21 -12 37 -10 26 3 29 7
32 46 2 31 -1 42 -11 42 -21 0 -28 -12 -16 -26 12 -15 5 -44 -11 -44 -6 0 -10
24 -10 55 0 30 5 55 10 55 6 0 10 -4 10 -10 0 -5 7 -10 15 -10 22 0 19 27 -4
40 -25 13 -27 13 -45 -6z"/>
<path d="M1062 1193 l3 -78 35 0 35 0 3 78 c2 64 0 77 -13 77 -12 0 -15 -14
-15 -70 0 -40 -4 -70 -10 -70 -6 0 -10 30 -10 70 0 56 -3 70 -15 70 -13 0 -15
-13 -13 -77z"/>
<path d="M1180 1184 c0 -64 3 -85 13 -81 6 2 11 16 10 31 -1 14 2 26 8 26 5 0
9 -6 9 -13 0 -18 27 -53 35 -45 4 3 0 20 -9 36 -14 26 -14 31 -1 42 8 7 15 25
15 41 0 30 -23 49 -59 49 -20 0 -21 -6 -21 -86z m50 30 c0 -31 -23 -28 -28 4
-2 15 2 22 12 22 11 0 16 -9 16 -26z"/>
<path d="M1300 1265 c-6 -54 0 -160 9 -160 6 0 11 3 11 8 0 4 0 41 0 82 0 43
-4 75 -10 75 -5 0 -10 -2 -10 -5z"/>
<path d="M1360 1189 l0 -80 38 3 37 3 3 65 c3 70 -9 90 -55 90 -22 0 -23 -3
-23 -81z m50 -4 c0 -30 -4 -55 -10 -55 -5 0 -10 25 -10 55 0 30 5 55 10 55 6
0 10 -25 10 -55z"/>
<path d="M1504 1243 c-10 -47 -25 -107 -30 -125 -4 -12 0 -18 10 -18 9 0 16 6
16 14 0 25 18 27 39 4 12 -12 24 -19 28 -15 3 4 -2 43 -12 87 -19 83 -39 104
-51 53z"/>
<path d="M1610 1190 l0 -80 34 0 c40 0 46 11 46 80 0 55 -18 80 -56 80 -23 0
-24 -2 -24 -80z m50 -5 c0 -42 -3 -55 -15 -55 -12 0 -15 13 -15 55 0 42 3 55
15 55 12 0 15 -13 15 -55z"/>
<path d="M1789 1263 c0 -4 -1 -40 -2 -80 l-2 -71 38 -4 c25 -2 37 1 37 9 0 7
-12 13 -26 13 -25 0 -25 1 -23 67 2 44 -2 68 -9 71 -7 2 -12 0 -13 -5z"/>
<path d="M1895 1259 c-4 -6 3 -13 15 -16 20 -5 22 -11 18 -71 -2 -46 1 -66 10
-69 9 -4 12 14 12 66 0 56 3 71 15 71 8 0 15 7 15 15 0 18 -75 22 -85 4z"/>
<path d="M2020 1187 l0 -84 38 6 37 6 3 65 c3 70 -9 90 -55 90 -22 0 -23 -3
-23 -83z m50 -2 c0 -30 -4 -55 -10 -55 -5 0 -10 25 -10 55 0 30 5 55 10 55 6
0 10 -25 10 -55z"/>
<path d="M2166 1258 c-7 -21 -36 -147 -36 -153 0 -3 7 -5 15 -5 8 0 15 7 15
15 0 21 30 19 46 -2 23 -32 26 -6 8 76 -11 53 -22 81 -31 81 -8 0 -15 -6 -17
-12z"/>
<path d="M2487 2575 c-31 -18 -35 -24 -24 -33 11 -9 20 -5 42 18 36 38 30 43
-18 15z"/>
<path d="M236 2274 c-4 -10 4 -19 27 -29 17 -7 35 -11 39 -9 18 11 6 33 -23
43 -39 14 -36 14 -43 -5z"/>
<path d="M2720 1778 c0 -18 5 -20 31 -14 17 3 38 6 47 6 25 0 9 8 -36 18 -39
9 -42 8 -42 -10z"/>
<path d="M806 3039 c-32 -25 -33 -50 -6 -143 11 -38 18 -72 15 -74 -2 -2 -16
0 -31 5 -20 7 -31 19 -36 41 -24 92 -160 74 -184 -25 -9 -34 18 -87 55 -109
18 -10 33 -29 36 -45 19 -86 147 -70 186 22 10 26 16 29 39 24 23 -5 32 -1 52
25 15 19 36 33 52 34 15 2 37 13 49 25 21 21 21 21 3 56 -23 42 -168 185 -189
185 -8 0 -26 -9 -41 -21z m138 -106 c83 -87 86 -92 66 -103 -17 -9 -25 -8 -40
5 -27 24 -63 1 -55 -36 5 -20 1 -28 -18 -36 -23 -11 -24 -10 -60 115 -33 118
-35 128 -19 140 9 7 22 11 28 10 6 -2 50 -44 98 -95z m-230 -51 c15 -18 15
-20 -4 -37 -19 -17 -21 -17 -40 0 -18 17 -20 17 -26 1 -12 -30 19 -49 82 -50
49 -1 59 -5 76 -27 19 -25 19 -28 3 -58 -9 -18 -27 -37 -40 -43 -49 -22 -104
17 -71 50 12 13 18 13 30 3 9 -7 23 -11 31 -7 13 5 13 9 3 27 -12 19 -19 20
-70 15 -54 -5 -58 -4 -77 23 -28 39 -26 63 5 95 31 31 74 34 98 8z"/>
<path d="M874 2927 c3 -11 9 -29 12 -42 4 -15 11 -22 20 -18 20 7 18 18 -12
50 -18 20 -24 22 -20 10z"/>
<path d="M440 2749 c-17 -17 -37 -44 -46 -61 -14 -27 -13 -31 5 -61 11 -18 33
-42 48 -54 15 -12 44 -35 63 -52 31 -26 32 -30 14 -31 -11 0 -39 18 -61 39
-69 68 -136 66 -185 -4 -35 -51 -35 -75 0 -107 41 -39 179 -118 207 -118 22 0
65 41 65 62 0 5 10 22 21 38 12 16 19 36 16 45 -5 10 1 18 16 24 36 14 83 58
97 91 11 25 10 34 -5 56 -14 22 -22 25 -51 21 -24 -4 -34 -2 -34 7 0 19 -34
46 -57 46 -16 0 -19 5 -16 23 5 24 -28 67 -52 67 -7 0 -27 -14 -45 -31z m80
-18 c0 -4 -11 -18 -25 -31 -31 -29 -31 -30 2 -54 26 -19 26 -19 43 5 16 20 20
21 34 10 15 -13 15 -16 -4 -36 l-21 -23 28 -22 28 -22 25 30 c20 24 28 27 42
19 15 -10 12 -17 -25 -61 -22 -28 -42 -52 -43 -54 -1 -2 -47 34 -101 80 l-100
83 41 51 c33 41 44 50 59 42 9 -5 17 -12 17 -17z m-99 -202 c18 -13 29 -29 29
-44 0 -22 5 -25 59 -31 59 -6 59 -7 48 -31 -8 -17 -17 -23 -31 -19 -12 2 -39
7 -61 11 l-40 6 47 -27 c42 -24 46 -29 36 -48 -6 -12 -12 -23 -14 -25 -1 -1
-53 27 -113 65 l-111 67 16 26 c47 74 83 88 135 50z"/>
<path d="M340 2485 c0 -8 14 -22 30 -30 28 -14 31 -14 36 0 7 18 -21 44 -48
45 -10 0 -18 -7 -18 -15z"/>
<path d="M285 1445 c-37 -38 -35 -97 5 -137 26 -26 36 -30 66 -25 42 7 59 23
72 68 24 90 -78 158 -143 94z m100 -25 c39 -43 14 -110 -40 -110 -47 0 -77 76
-45 114 18 22 63 20 85 -4z"/>
<path d="M2611 1454 c-32 -23 -53 -77 -42 -107 12 -32 58 -67 86 -67 30 0 71
33 83 67 29 86 -55 157 -127 107z m98 -45 c30 -55 -43 -125 -89 -84 -25 22
-26 71 -3 97 24 27 73 20 92 -13z"/>
<path d="M470 453 c0 -5 18 -85 41 -179 l42 -171 34 2 35 1 44 174 c24 96 43
176 44 178 0 2 -17 2 -37 0 l-38 -3 -21 -113 c-12 -62 -24 -115 -26 -117 -2
-3 -15 49 -27 115 l-23 120 -34 0 c-19 0 -34 -3 -34 -7z"/>
<path d="M770 290 c0 -93 0 -173 0 -177 0 -4 16 -8 35 -9 l35 -1 0 179 0 178
-35 0 -35 0 0 -170z"/>
<path d="M960 453 c-8 -3 -25 -15 -37 -26 -22 -19 -23 -29 -23 -144 0 -118 1
-125 25 -148 32 -33 100 -35 139 -4 24 19 26 26 26 100 l0 79 -45 0 c-44 0
-45 -1 -45 -31 0 -17 4 -28 10 -24 6 4 10 -13 10 -44 0 -48 -2 -51 -25 -51
l-25 0 0 119 c0 99 3 120 16 125 23 9 34 -2 34 -34 0 -25 3 -28 35 -28 33 0
35 2 35 33 0 59 -69 100 -130 78z"/>
<path d="M1157 283 l2 -177 35 -3 36 -2 0 180 0 179 -37 0 -38 0 2 -177z"/>
<path d="M1290 283 l0 -178 87 1 c87 1 88 2 91 28 3 25 2 26 -52 26 l-56 0 0
150 0 150 -35 0 -35 0 0 -177z"/>
<path d="M1561 296 c-22 -91 -41 -172 -41 -180 0 -9 10 -13 32 -12 28 1 34 6
38 31 5 27 9 30 45 30 36 0 40 -3 45 -30 4 -26 10 -29 43 -31 20 -2 37 -2 37
-1 -1 1 -20 81 -44 177 l-44 175 -35 3 -34 3 -42 -165z m94 -33 c7 -42 6 -43
-20 -43 -23 0 -26 3 -22 23 3 12 9 40 13 62 8 44 16 33 29 -42z"/>
<path d="M1810 282 l0 -178 36 0 36 0 -4 107 c-2 59 0 105 4 103 5 -3 8 -9 8
-15 0 -5 16 -51 36 -102 35 -92 35 -93 70 -93 l34 0 0 178 0 178 -36 0 -36 0
4 -105 c2 -58 0 -105 -4 -105 -5 0 -8 5 -8 10 0 6 -16 53 -36 105 -36 94 -37
95 -70 95 l-34 0 0 -178z m70 62 c0 -6 -7 -17 -15 -24 -13 -11 -15 -6 -15 31
1 41 2 43 15 25 8 -11 15 -25 15 -32z m108 -156 c-4 -22 -5 -22 -18 4 -11 23
-11 30 1 44 13 16 14 16 17 -4 2 -12 2 -32 0 -44z"/>
<path d="M2090 429 c0 -30 2 -31 35 -27 l35 4 0 -151 0 -151 35 0 35 0 0 151
0 151 35 -4 c33 -4 35 -3 35 27 l0 31 -105 0 -105 0 0 -31z"/>
<path d="M2360 283 l0 -178 87 1 c85 1 86 2 89 28 3 25 1 26 -52 26 l-54 0 0
49 0 49 40 -5 c39 -6 40 -5 40 26 0 30 -2 31 -40 31 l-40 0 0 48 0 47 52 0
c49 0 52 2 52 25 0 25 -1 25 -87 28 l-87 3 0 -178z"/>
</g>
</svg>
