<?xml version="1.0" encoding="utf-8"?>
<!-- Generator: Adobe Illustrator 28.0.0, SVG Export Plug-In . SVG Version: 6.00 Build 0)  -->
<svg version="1.1" id="Capa_1" xmlns="http://www.w3.org/2000/svg" xmlns:xlink="http://www.w3.org/1999/xlink" x="0px" y="0px"
	 viewBox="0 0 1920 1080" style="enable-background:new 0 0 1920 1080;" xml:space="preserve">
<style type="text/css">
	.st0{fill-rule:evenodd;clip-rule:evenodd;fill:url(#SVGID_1_);}
	.st1{fill-rule:evenodd;clip-rule:evenodd;fill:none;}
	
		.st2{opacity:0.4;clip-path:url(#SVGID_00000140705821112057033840000005564491455590742446_);fill-rule:evenodd;clip-rule:evenodd;fill:url(#SVGID_00000162339923193987945640000000249721727246087087_);}
	.st3{fill-rule:evenodd;clip-rule:evenodd;fill:url(#SVGID_00000151518019847359012700000000332453889007171742_);}
	
		.st4{opacity:0.25;clip-path:url(#SVGID_00000134235122803981652720000016257816446254482855_);fill-rule:evenodd;clip-rule:evenodd;fill:url(#SVGID_00000047030133874286812530000018012312741365311362_);}
	.st5{opacity:0.07;fill-rule:evenodd;clip-rule:evenodd;fill:url(#SVGID_00000150786709520132494270000016047771216634412947_);}
</style>
<linearGradient id="SVGID_1_" gradientUnits="userSpaceOnUse" x1="521.8718" y1="2377.6165" x2="1398.0043" y2="3523.8989">
	<stop  offset="0" style="stop-color:#C21717"/>
	<stop  offset="1" style="stop-color:#901812"/>
</linearGradient>
<rect x="-6.18" y="2405.24" class="st0" width="1932.35" height="1091.19"/>
<rect y="2410.84" class="st1" width="1438.18" height="1111.32"/>
<rect y="0" class="st1" width="1438.18" height="1111.32"/>
<g>
	<defs>
		<rect id="SVGID_00000068679096326780387670000006470778410011237512_" x="-6.18" y="2405.24" width="1932.35" height="1091.19"/>
	</defs>
	<clipPath id="SVGID_00000150809712456263520370000004138711689558333598_">
		<use xlink:href="#SVGID_00000068679096326780387670000006470778410011237512_"  style="overflow:visible;"/>
	</clipPath>
	
		<linearGradient id="SVGID_00000013185859282027500960000017199785705455883454_" gradientUnits="userSpaceOnUse" x1="-217.5232" y1="2959.4863" x2="882.5411" y2="2959.4863">
		<stop  offset="0" style="stop-color:#C21717"/>
		<stop  offset="0.3631" style="stop-color:#901812"/>
	</linearGradient>
	
		<path style="opacity:0.4;clip-path:url(#SVGID_00000150809712456263520370000004138711689558333598_);fill-rule:evenodd;clip-rule:evenodd;fill:url(#SVGID_00000013185859282027500960000017199785705455883454_);" d="
		M492.32,2501.79c78.43,8.42,154.82,23.68,228.82,44.56c21.05,6.46,13.59,32.37,15.08,49.16c-0.01,43.69-2.49,87.94-7.26,130.82
		c-1.09,9.78,4.9,18.81,14.32,21.64c36.44,10.92,72.23,23.32,107.35,37.06c12.64,4.95,26.45-3.53,27.45-17.07
		c9.37-64.08,1.83-219.3-3.01-241.66c-5.09-15.91-4.82-95.14-24.64-100.48c-90.03-35.17-183.53-60.81-279.46-76.83
		c-14.41-0.13-40.56-53.01-48.86-61.88c-3.27-4.91-8.52-8.13-14.38-8.83c-68.48-8.22-137.18-18.32-206.34-15.77
		c-47.92,1.77-95.9,9.98-143.77,15.77c-5.86,0.71-11.13,3.91-14.4,8.83c-9.33,8.92-34.33,62.7-49.19,62.44
		c-95.85,16.23-189.22,42.2-279.14,77.58c-20.27,4.55-19.1,82.6-24.45,97.23c-9.53,65.98-7.85,156.37-7.85,156.37
		c2.1,60.72,7.47,144.89,21.28,207.39c7.48,39.31,17.04,77.91,28.53,115.72c3.33,10.96,15.24,16.7,26.03,12.86
		c250.2-89.51,531.3-106.18,792.53-46.12c11.73,2.66,18.56,15.19,14.43,26.49c-18.12,49.53-39.56,97.55-63.95,143.64
		c-64.61,122.7-151.29,233.3-254.26,325.8c-20.17,16.54-37.39-11.45-51.67-23.05c-44.06-41.91-83.5-85.68-120.77-133.98
		c-9.73-12.67-1.66-31.1,14.27-32.4c42.46-3.46,110.57-8.3,145.19-8.3c22.05-2.79,42.67,8.22,58.47-6.3
		c27.11-31.74,60.48-80.04,80.64-110.38c8.49-12.78,0.06-29.79-15.23-31.14c-129.66-11.53-266.19-4.35-392.01,19.98
		c-47.86,9.1-94.9,20.64-140.91,34.48c-11.97,3.59-17.55,17.45-11.62,28.44c93.85,182.01,236.11,338.69,408.14,449.8
		c6.65,4.3,15.31,4.3,21.95-0.01c136.54-88.38,254.15-204.62,344.01-340.57c59.42-89.71,106.49-187.24,139.3-290.29
		c12.6-38.86,23.06-78.66,31.48-119.17c2-9.63-3.33-19.4-12.5-22.94c-270.12-105.98-588.35-123.93-869.35-49.51
		c-11.14,2.89-22.52-4.01-24.7-15.32c-4.6-23.88-8.45-48-11.43-72.33c-5.07-39.34-8.05-79.35-9.04-119.8
		c2.64-19.98-9.99-70.25,13.39-76.68C136.33,2499.26,274.06,2484.92,492.32,2501.79z"/>
</g>
<linearGradient id="SVGID_00000121255504367937863200000001178479580276114318_" gradientUnits="userSpaceOnUse" x1="521.8718" y1="1197.7455" x2="1398.0043" y2="2344.0278">
	<stop  offset="0" style="stop-color:#3C3835"/>
	<stop  offset="1" style="stop-color:#12100D"/>
</linearGradient>
<rect x="-6.18" y="1225.37" style="fill-rule:evenodd;clip-rule:evenodd;fill:url(#SVGID_00000121255504367937863200000001178479580276114318_);" width="1932.35" height="1091.19"/>
<rect y="1230.97" class="st1" width="1438.18" height="1111.32"/>
<g>
	<defs>
		<rect id="SVGID_00000103223044771442238780000014606568122931154560_" x="-6.18" y="1225.37" width="1932.35" height="1091.19"/>
	</defs>
	<clipPath id="SVGID_00000155142755968399038780000006159431347694763931_">
		<use xlink:href="#SVGID_00000103223044771442238780000014606568122931154560_"  style="overflow:visible;"/>
	</clipPath>
	
		<linearGradient id="SVGID_00000166673824204553375310000014441398664139629743_" gradientUnits="userSpaceOnUse" x1="-217.5232" y1="1779.6154" x2="882.5411" y2="1779.6154">
		<stop  offset="0" style="stop-color:#3C3835"/>
		<stop  offset="1" style="stop-color:#12100D"/>
	</linearGradient>
	
		<path style="opacity:0.25;clip-path:url(#SVGID_00000155142755968399038780000006159431347694763931_);fill-rule:evenodd;clip-rule:evenodd;fill:url(#SVGID_00000166673824204553375310000014441398664139629743_);" d="
		M492.32,1321.92c78.43,8.42,154.82,23.68,228.82,44.56c21.05,6.46,13.59,32.37,15.08,49.16c-0.01,43.69-2.49,87.94-7.26,130.82
		c-1.09,9.78,4.9,18.81,14.32,21.64c36.44,10.92,72.23,23.32,107.35,37.06c12.64,4.95,26.45-3.53,27.45-17.07
		c9.37-64.08,1.83-219.3-3.01-241.66c-5.09-15.91-4.82-95.14-24.64-100.48c-90.03-35.17-183.53-60.81-279.46-76.83
		c-14.41-0.13-40.56-53.01-48.86-61.88c-3.27-4.91-8.52-8.13-14.38-8.83c-68.48-8.22-137.18-18.32-206.34-15.77
		c-47.92,1.77-95.9,9.98-143.77,15.77c-5.86,0.71-11.13,3.91-14.4,8.83c-9.33,8.92-34.33,62.7-49.19,62.44
		c-95.85,16.23-189.22,42.2-279.14,77.58c-20.27,4.55-19.1,82.6-24.45,97.23c-9.53,65.98-7.85,156.37-7.85,156.37
		c2.1,60.72,7.47,144.89,21.28,207.39c7.48,39.31,17.04,77.91,28.53,115.72c3.33,10.96,15.24,16.7,26.03,12.86
		c250.2-89.51,531.3-106.18,792.53-46.12c11.73,2.66,18.56,15.19,14.43,26.49c-18.12,49.53-39.56,97.55-63.95,143.64
		c-64.61,122.7-151.29,233.3-254.26,325.8c-20.17,16.54-37.39-11.45-51.67-23.05c-44.06-41.91-83.5-85.68-120.77-133.98
		c-9.73-12.67-1.66-31.1,14.27-32.4c42.46-3.46,110.57-8.3,145.19-8.3c22.05-2.79,42.67,8.22,58.47-6.3
		c27.11-31.74,60.48-80.04,80.64-110.38c8.49-12.78,0.06-29.79-15.23-31.14c-129.66-11.53-266.19-4.35-392.01,19.98
		c-47.86,9.1-94.9,20.64-140.91,34.48c-11.97,3.59-17.55,17.44-11.62,28.44c93.85,182.01,236.11,338.69,408.14,449.8
		c6.65,4.3,15.31,4.3,21.95,0c136.54-88.38,254.15-204.62,344.01-340.57c59.42-89.71,106.49-187.24,139.3-290.29
		c12.6-38.86,23.06-78.66,31.48-119.17c2-9.63-3.33-19.4-12.5-22.93c-270.12-105.98-588.35-123.93-869.35-49.51
		c-11.14,2.89-22.52-4.01-24.7-15.32c-4.6-23.88-8.45-48-11.43-72.33c-5.07-39.34-8.05-79.35-9.04-119.8
		c2.64-19.98-9.99-70.25,13.39-76.68C136.33,1319.38,274.06,1305.05,492.32,1321.92z"/>
</g>
<g>
	<defs>
		<rect id="SVGID_00000088851117490602165660000013235827667741466533_" x="-6.18" y="-5.6" width="1932.35" height="1091.19"/>
	</defs>
	<clipPath id="SVGID_00000040551477687704434150000013843963052075461808_">
		<use xlink:href="#SVGID_00000088851117490602165660000013235827667741466533_"  style="overflow:visible;"/>
	</clipPath>
</g>
<linearGradient id="SVGID_00000016040453595488549600000006962863367154903987_" gradientUnits="userSpaceOnUse" x1="554.2866" y1="548.9194" x2="1365.7135" y2="548.9194">
	<stop  offset="0" style="stop-color:#3C3835"/>
	<stop  offset="1" style="stop-color:#12100D"/>
</linearGradient>
<path style="opacity:0.07;fill-rule:evenodd;clip-rule:evenodd;fill:url(#SVGID_00000016040453595488549600000006962863367154903987_);" d="
	M1077.88,211.32c57.85,6.21,114.2,17.47,168.79,32.86c15.52,4.77,10.02,23.88,11.12,36.26c-0.01,32.23-1.84,64.86-5.36,96.5
	c-0.8,7.21,3.62,13.88,10.56,15.96c26.88,8.06,53.28,17.2,79.18,27.34c9.33,3.65,19.51-2.61,20.25-12.59
	c6.91-47.27,1.35-161.76-2.22-178.25c-3.75-11.74-3.55-70.18-18.17-74.12c-66.41-25.94-135.38-44.85-206.14-56.67
	c-10.63-0.09-29.91-39.1-36.04-45.65c-2.41-3.62-6.29-5.99-10.61-6.51c-50.51-6.07-101.18-13.51-152.2-11.63
	c-35.35,1.3-70.74,7.36-106.05,11.63c-4.33,0.52-8.21,2.89-10.62,6.51c-6.89,6.58-25.32,46.25-36.28,46.06
	c-70.7,11.97-139.57,31.13-205.9,57.22c-14.95,3.36-14.09,60.93-18.03,71.71c-7.03,48.67-5.79,115.34-5.79,115.34
	c1.55,44.79,5.51,106.88,15.69,152.98c5.52,29,12.57,57.47,21.05,85.36c2.45,8.09,11.24,12.32,19.2,9.49
	c184.55-66.03,391.89-78.32,584.59-34.02c8.65,1.96,13.69,11.2,10.64,19.54c-13.36,36.53-29.18,71.96-47.17,105.95
	c-47.66,90.5-111.6,172.09-187.55,240.31c-14.88,12.2-27.58-8.45-38.11-17.01c-32.5-30.92-61.59-63.2-89.08-98.83
	c-7.18-9.34-1.22-22.94,10.52-23.9c31.32-2.56,81.56-6.12,107.09-6.12c16.26-2.06,31.48,6.07,43.13-4.64
	c19.99-23.41,44.61-59.04,59.48-81.42c6.26-9.42,0.04-21.98-11.23-22.97c-95.64-8.5-196.35-3.21-289.15,14.74
	c-35.3,6.71-70,15.22-103.94,25.43c-8.83,2.65-12.94,12.87-8.57,20.98C720.17,863.42,825.11,978.99,952,1060.94
	c4.91,3.17,11.29,3.17,16.19,0c100.72-65.19,187.46-150.93,253.75-251.21c43.83-66.17,78.55-138.11,102.75-214.12
	c9.29-28.66,17.01-58.02,23.22-87.9c1.47-7.1-2.45-14.31-9.22-16.92c-199.24-78.17-433.98-91.42-641.25-36.52
	c-8.22,2.13-16.61-2.96-18.22-11.3c-3.4-17.61-6.23-35.41-8.43-53.35c-3.74-29.02-5.94-58.53-6.67-88.36
	c1.95-14.74-7.37-51.82,9.88-56.56C815.3,209.45,916.88,198.87,1077.88,211.32z"/>
</svg>
